<?xml version="1.0" encoding="UTF-8"?>
<svg xmlns="http://www.w3.org/2000/svg" xmlns:xlink="http://www.w3.org/1999/xlink" width="50px" height="66px" viewBox="0 0 50 65" version="1.1">
<g id="surface1">
<path style=" stroke:none;fill-rule:nonzero;fill:rgb(0%,0%,0%);fill-opacity:1;" d="M 17.570312 2.730469 L 17.433594 2.875 L 17.433594 7.207031 L 17.703125 7.230469 C 17.847656 7.25 18.292969 7.296875 18.6875 7.34375 C 21.34375 7.628906 23.210938 8.160156 23.972656 8.851562 C 24.710938 9.515625 25.109375 10.753906 25.230469 12.796875 C 25.308594 14.128906 25.265625 47.289062 25.179688 48.140625 C 24.902344 50.980469 24.507812 52.761719 23.816406 54.28125 C 22.699219 56.738281 20.96875 58.113281 18.570312 58.453125 C 17.992188 58.535156 16.585938 58.488281 16.152344 58.371094 C 15.355469 58.164062 14.519531 57.667969 14.25 57.242188 C 14.003906 56.855469 14.027344 56.773438 14.570312 56.269531 C 16.082031 54.875 16.683594 54.164062 17.171875 53.191406 C 17.734375 52.074219 17.925781 51.183594 17.878906 49.847656 C 17.8125 47.769531 17.164062 46.242188 15.769531 44.859375 C 14.71875 43.820312 13.621094 43.234375 12.109375 42.894531 C 11.675781 42.796875 11.460938 42.789062 10.40625 42.789062 C 9.105469 42.789062 8.632812 42.847656 7.742188 43.144531 C 5.230469 43.976562 3.261719 46.214844 2.671875 48.90625 C 2.433594 50 2.398438 51.691406 2.589844 52.910156 C 2.964844 55.28125 3.96875 57.261719 5.632812 58.90625 C 7.277344 60.527344 9.535156 61.78125 12.125 62.5 C 15.238281 63.375 19.285156 63.59375 23.304688 63.117188 C 26.226562 62.765625 28.902344 62.015625 31.230469 60.882812 C 33.105469 59.96875 34.585938 58.9375 35.941406 57.585938 C 38.386719 55.160156 39.679688 52.320312 40.171875 48.292969 C 40.285156 47.351562 40.398438 45.902344 40.433594 44.863281 C 40.449219 44.363281 40.46875 43.871094 40.480469 43.773438 C 40.488281 43.675781 40.503906 36.683594 40.503906 28.234375 C 40.507812 19.714844 40.535156 12.625 40.5625 12.3125 C 40.695312 10.6875 41.042969 9.550781 41.601562 8.90625 C 42.257812 8.144531 43.929688 7.605469 46.542969 7.3125 C 47.03125 7.257812 47.457031 7.199219 47.484375 7.183594 C 47.511719 7.164062 47.527344 6.332031 47.527344 5.027344 L 47.523438 2.898438 L 47.394531 2.742188 L 47.261719 2.589844 L 17.710938 2.589844 Z M 17.570312 2.730469 "/>
</g>
</svg>
